<svg xmlns="http://www.w3.org/2000/svg" version="1.1" xmlns:xlink="http://www.w3.org/1999/xlink" viewBox="0 0 200 200" width="200" height="200"><rect width="200" height="200" fill="url('#gradient')"></rect><defs><linearGradient id="gradient" gradientTransform="rotate(82 0.5 0.5)"><stop offset="0%" stop-color="#94250f"></stop><stop offset="100%" stop-color="#e3cc72"></stop></linearGradient></defs><g><g fill="#000000" transform="matrix(8.240144665461122,0,0,8.240144665461122,2.1482795083716724,158.55060298619605)" stroke="#fdf9f8" stroke-width="0.45"><path d="M4.50-14.22L4.50-2.64L10.47-2.64L10.47 0L1.07 0L1.07-14.22L4.50-14.22ZM19.25-3.78L19.25-3.78Q19.25-4.53 18.72-4.95Q18.18-5.37 16.85-5.82Q15.51-6.27 14.66-6.69L14.66-6.69Q11.89-8.05 11.89-10.42L11.89-10.42Q11.89-11.60 12.58-12.50Q13.27-13.41 14.53-13.91Q15.79-14.41 17.36-14.41L17.36-14.41Q18.90-14.41 20.11-13.87Q21.33-13.32 22.00-12.31Q22.68-11.30 22.68-10L22.68-10L19.26-10Q19.26-10.87 18.73-11.35Q18.19-11.83 17.29-11.83L17.29-11.83Q16.37-11.83 15.83-11.42Q15.30-11.02 15.30-10.39L15.30-10.39Q15.30-9.84 15.89-9.40Q16.47-8.96 17.95-8.48Q19.42-8.01 20.37-7.46L20.37-7.46Q22.68-6.13 22.68-3.80L22.68-3.80Q22.68-1.93 21.27-0.87Q19.86 0.20 17.41 0.20L17.41 0.20Q15.68 0.20 14.28-0.42Q12.88-1.04 12.17-2.12Q11.46-3.20 11.46-4.61L11.46-4.61L14.90-4.61Q14.90-3.47 15.49-2.92Q16.08-2.38 17.41-2.38L17.41-2.38Q18.26-2.38 18.75-2.75Q19.25-3.12 19.25-3.78Z"></path></g></g></svg>